<svg width="24" height="24" viewBox="0 0 24 24" fill="none" xmlns="http://www.w3.org/2000/svg">
<path fill-rule="evenodd" clip-rule="evenodd" d="M4.00516 6.6957C4.00516 4.10661 6.14167 2 8.76742 2C9.32184 2 9.77 2.44187 9.77 2.98856C9.77 3.53525 9.32184 3.97715 8.76742 3.97715C7.2475 3.97715 6.01032 5.19603 6.01032 6.6957V9.96889C6.01032 10.7543 5.69855 11.469 5.19127 12.0002C5.69845 12.5314 6.01032 13.2459 6.01032 14.0311V17.3041C6.01032 18.8038 7.2475 20.0228 8.76742 20.0228C9.32184 20.0228 9.77 20.4648 9.77 21.0114C9.77 21.5581 9.32184 22 8.76742 22C6.14167 22 4.00516 19.8933 4.00516 17.3041V14.0311C4.00516 13.4854 3.557 13.0425 3.00258 13.0425C2.44816 13.0425 2 12.6005 2 12.0538C2 12.0358 2.00064 12.0178 2.0016 12C2.00064 11.9822 2 11.9641 2 11.9461C2 11.3994 2.44816 10.9575 3.00258 10.9575C3.557 10.9575 4.00516 10.5146 4.00516 9.96889V6.6957ZM14.23 2.98856C14.23 2.44187 14.6781 2 15.2325 2C17.8583 2 19.9949 4.10661 19.9949 6.6957V9.96889C19.9949 10.5146 20.4451 10.9575 20.9975 10.9575C21.5519 10.9575 22 11.3994 22 11.9461C22 11.9641 21.9994 11.9822 21.9984 12C21.9994 12.0178 22 12.0358 22 12.0538C22 12.6005 21.5519 13.0425 20.9975 13.0425C20.4451 13.0425 19.9949 13.4854 19.9949 14.0311V17.3041C19.9949 19.8933 17.8593 22 15.2325 22C14.6781 22 14.23 21.5581 14.23 21.0114C14.23 20.4648 14.6781 20.0228 15.2325 20.0228C16.7545 20.0228 17.9897 18.8038 17.9897 17.3041V14.0311C17.9897 13.2457 18.3016 12.5311 18.8089 12C18.3016 11.4688 17.9897 10.7542 17.9897 9.96889V6.6957C17.9897 5.19603 16.7545 3.97715 15.2325 3.97715C14.6781 3.97715 14.23 3.53525 14.23 2.98856Z" fill="#010C3B"/>
</svg>
