<svg width="24" height="24" viewBox="0 0 24 24" fill="none" xmlns="http://www.w3.org/2000/svg">
<path fill-rule="evenodd" clip-rule="evenodd" d="M10.6569 3.29286C11.64 2.30967 12.9735 1.75732 14.364 1.75732C15.7544 1.75732 17.0879 2.30967 18.0711 3.29286C19.0543 4.27604 19.6066 5.60953 19.6066 6.99996C19.6066 8.3904 19.0543 9.72389 18.0711 10.7071L11.5711 17.2071C10.9857 17.7924 10.1918 18.1213 9.36396 18.1213C8.53614 18.1213 7.74222 17.7924 7.15685 17.2071C6.57149 16.6217 6.24264 15.8278 6.24264 15C6.24264 14.1721 6.57149 13.3782 7.15685 12.7929L13.6569 6.29286C14.0474 5.90233 14.6805 5.90233 15.0711 6.29286C15.4616 6.68338 15.4616 7.31655 15.0711 7.70707L8.57107 14.2071C8.36078 14.4174 8.24264 14.7026 8.24264 15C8.24264 15.2974 8.36078 15.5826 8.57107 15.7929C8.78136 16.0031 9.06657 16.1213 9.36396 16.1213C9.66135 16.1213 9.94657 16.0031 10.1569 15.7929L16.6569 9.29286C17.265 8.68474 17.6066 7.85997 17.6066 6.99996C17.6066 6.13996 17.265 5.31519 16.6569 4.70707C16.0487 4.09896 15.224 3.75732 14.364 3.75732C13.504 3.75732 12.6792 4.09896 12.0711 4.70707L5.57107 11.2071C4.56513 12.213 4 13.5774 4 15C4 16.4226 4.56513 17.7869 5.57107 18.7929C6.57701 19.7988 7.94135 20.3639 9.36396 20.3639C10.7866 20.3639 12.1509 19.7988 13.1569 18.7929L19.6569 12.2929C20.0474 11.9023 20.6805 11.9023 21.0711 12.2929C21.4616 12.6834 21.4616 13.3165 21.0711 13.7071L14.5711 20.2071C13.1901 21.5881 11.317 22.3639 9.36396 22.3639C7.41092 22.3639 5.53786 21.5881 4.15685 20.2071C2.77584 18.8261 2 16.953 2 15C2 13.0469 2.77584 11.1739 4.15685 9.79286L10.6569 3.29286Z" fill="#010C3B"/>
</svg>
