<svg width="24" height="24" viewBox="0 0 24 24" fill="none" xmlns="http://www.w3.org/2000/svg">
<path d="M8 10C9.10457 10 10 9.10457 10 8C10 6.89543 9.10457 6 8 6C6.89543 6 6 6.89543 6 8C6 9.10457 6.89543 10 8 10Z" fill="#010C3B"/>
<path fill-rule="evenodd" clip-rule="evenodd" d="M22 18V15.0718C22.0034 15.0242 22.0034 14.9766 22 14.9291V6C22 3.79086 20.2091 2 18 2H6C3.79086 2 2 3.79086 2 6V18C2 20.2091 3.79086 22 6 22H18C20.2091 22 22 20.2091 22 18ZM18 4H6C4.89543 4 4 4.89543 4 6V15.5883L6.29541 13.2929C6.68593 12.9024 7.3191 12.9024 7.70962 13.2929L10.0025 15.5858L15.2954 10.2929C15.6649 9.92341 16.2566 9.90068 16.6533 10.2407L20 12.9181V6C20 4.89543 19.1046 4 18 4ZM6 20C5.02556 20 4.21389 19.3031 4.03616 18.3806L7.00251 15.4142L9.29541 17.7071C9.68593 18.0976 10.3191 18.0976 10.7096 17.7071L16.0548 12.3619L20 15.4812V18C20 19.1046 19.1046 20 18 20H6Z" fill="#010C3B"/>
</svg>
