<svg width="24" height="24" viewBox="0 0 24 24" fill="none" xmlns="http://www.w3.org/2000/svg">
<path fill-rule="evenodd" clip-rule="evenodd" d="M20 11V11.7647C20 15.9643 16.9463 19.4297 13 19.9363V22C13 22.5523 12.5523 23 12 23C11.4477 23 11 22.5523 11 22V19.9363C7.05369 19.4297 4 15.9643 4 11.7647V11C4 10.4477 4.44772 10 5 10C5.55228 10 6 10.4477 6 11V11.8462C6 15.2448 8.68629 18 12 18C15.3137 18 18 15.2448 18 11.8462V11C18 10.4477 18.4477 10 19 10C19.5523 10 20 10.4477 20 11ZM8 6C8 3.79086 9.79086 2 12 2C14.2091 2 16 3.79086 16 6V12C16 14.2091 14.2091 16 12 16C9.79086 16 8 14.2091 8 12V6ZM10 6C10 4.89543 10.8954 4 12 4C13.1046 4 14 4.89543 14 6V12C14 13.1046 13.1046 14 12 14C10.8954 14 10 13.1046 10 12V6Z" fill="#010C3B"/>
</svg>
