<svg width="168" height="40" viewBox="0 0 168 40" fill="none" xmlns="http://www.w3.org/2000/svg">
<rect width="168" height="40" rx="20" fill="#EBECEF"/>
<path opacity="0.4" d="M17.4091 14.3636H19.0909L23.0455 24.0227H23.1818L27.1364 14.3636H28.8182V26H27.5V17.1591H27.3864L23.75 26H22.4773L18.8409 17.1591H18.7273V26H17.4091V14.3636ZM35.1207 26.1818C34.2798 26.1818 33.5545 25.9962 32.9446 25.625C32.3385 25.25 31.8707 24.7273 31.5412 24.0568C31.2154 23.3826 31.0526 22.5985 31.0526 21.7045C31.0526 20.8106 31.2154 20.0227 31.5412 19.3409C31.8707 18.6553 32.3291 18.1212 32.9162 17.7386C33.5071 17.3523 34.1965 17.1591 34.9844 17.1591C35.4389 17.1591 35.8878 17.2348 36.331 17.3864C36.7741 17.5379 37.1776 17.7841 37.5412 18.125C37.9048 18.4621 38.1946 18.9091 38.4105 19.4659C38.6264 20.0227 38.7344 20.7083 38.7344 21.5227V22.0909H32.0071V20.9318H37.3707C37.3707 20.4394 37.2723 20 37.0753 19.6136C36.8821 19.2273 36.6056 18.9223 36.2457 18.6989C35.8897 18.4754 35.4692 18.3636 34.9844 18.3636C34.4503 18.3636 33.9882 18.4962 33.598 18.7614C33.2116 19.0227 32.9143 19.3636 32.706 19.7841C32.4976 20.2045 32.3935 20.6553 32.3935 21.1364V21.9091C32.3935 22.5682 32.5071 23.1269 32.7344 23.5852C32.9654 24.0398 33.2855 24.3864 33.6946 24.625C34.1037 24.8598 34.5791 24.9773 35.1207 24.9773C35.473 24.9773 35.7912 24.928 36.0753 24.8295C36.3632 24.7273 36.6113 24.5758 36.8196 24.375C37.0279 24.1705 37.1889 23.9167 37.3026 23.6136L38.598 23.9773C38.4616 24.4167 38.2325 24.803 37.9105 25.1364C37.5885 25.4659 37.1908 25.7235 36.7173 25.9091C36.2438 26.0909 35.7116 26.1818 35.1207 26.1818ZM46.956 19.2273L45.7514 19.5682C45.6757 19.3674 45.5639 19.1723 45.4162 18.983C45.2723 18.7898 45.0753 18.6307 44.8253 18.5057C44.5753 18.3807 44.2552 18.3182 43.8651 18.3182C43.331 18.3182 42.8859 18.4413 42.5298 18.6875C42.1776 18.9299 42.0014 19.2386 42.0014 19.6136C42.0014 19.947 42.1226 20.2102 42.3651 20.4034C42.6075 20.5966 42.9863 20.7576 43.5014 20.8864L44.7969 21.2045C45.5772 21.3939 46.1586 21.6837 46.5412 22.0739C46.9238 22.4602 47.1151 22.9583 47.1151 23.5682C47.1151 24.0682 46.9711 24.5152 46.6832 24.9091C46.3991 25.303 46.0014 25.6136 45.4901 25.8409C44.9787 26.0682 44.384 26.1818 43.706 26.1818C42.8158 26.1818 42.0791 25.9886 41.4957 25.6023C40.9124 25.2159 40.5431 24.6515 40.3878 23.9091L41.6605 23.5909C41.7817 24.0606 42.0109 24.4129 42.348 24.6477C42.6889 24.8826 43.134 25 43.6832 25C44.3082 25 44.8045 24.8674 45.1719 24.6023C45.5431 24.3333 45.7287 24.0114 45.7287 23.6364C45.7287 23.3333 45.6226 23.0795 45.4105 22.875C45.1984 22.6667 44.8726 22.5114 44.4332 22.4091L42.9787 22.0682C42.1795 21.8788 41.5923 21.5852 41.2173 21.1875C40.8461 20.786 40.6605 20.2841 40.6605 19.6818C40.6605 19.1894 40.7988 18.7538 41.0753 18.375C41.3556 17.9962 41.7363 17.6989 42.2173 17.483C42.7022 17.267 43.2514 17.1591 43.8651 17.1591C44.7287 17.1591 45.4067 17.3485 45.8991 17.7273C46.3954 18.1061 46.7476 18.6061 46.956 19.2273ZM55.3153 19.2273L54.1108 19.5682C54.035 19.3674 53.9233 19.1723 53.7756 18.983C53.6316 18.7898 53.4347 18.6307 53.1847 18.5057C52.9347 18.3807 52.6146 18.3182 52.2244 18.3182C51.6903 18.3182 51.2453 18.4413 50.8892 18.6875C50.5369 18.9299 50.3608 19.2386 50.3608 19.6136C50.3608 19.947 50.482 20.2102 50.7244 20.4034C50.9669 20.5966 51.3456 20.7576 51.8608 20.8864L53.1562 21.2045C53.9366 21.3939 54.518 21.6837 54.9006 22.0739C55.2831 22.4602 55.4744 22.9583 55.4744 23.5682C55.4744 24.0682 55.3305 24.5152 55.0426 24.9091C54.7585 25.303 54.3608 25.6136 53.8494 25.8409C53.3381 26.0682 52.7434 26.1818 52.0653 26.1818C51.1752 26.1818 50.4384 25.9886 49.8551 25.6023C49.2718 25.2159 48.9025 24.6515 48.7472 23.9091L50.0199 23.5909C50.1411 24.0606 50.3703 24.4129 50.7074 24.6477C51.0483 24.8826 51.4934 25 52.0426 25C52.6676 25 53.1638 24.8674 53.5312 24.6023C53.9025 24.3333 54.0881 24.0114 54.0881 23.6364C54.0881 23.3333 53.982 23.0795 53.7699 22.875C53.5578 22.6667 53.232 22.5114 52.7926 22.4091L51.3381 22.0682C50.5388 21.8788 49.9517 21.5852 49.5767 21.1875C49.2055 20.786 49.0199 20.2841 49.0199 19.6818C49.0199 19.1894 49.1581 18.7538 49.4347 18.375C49.715 17.9962 50.0956 17.6989 50.5767 17.483C51.0616 17.267 51.6108 17.1591 52.2244 17.1591C53.0881 17.1591 53.7661 17.3485 54.2585 17.7273C54.7547 18.1061 55.107 18.6061 55.3153 19.2273ZM60.0611 26.2045C59.508 26.2045 59.0062 26.1004 58.5554 25.892C58.1046 25.6799 57.7467 25.375 57.4815 24.9773C57.2164 24.5758 57.0838 24.0909 57.0838 23.5227C57.0838 23.0227 57.1823 22.6174 57.3793 22.3068C57.5762 21.9924 57.8395 21.7462 58.169 21.5682C58.4986 21.3902 58.8622 21.2576 59.2599 21.1705C59.6615 21.0795 60.0649 21.0076 60.4702 20.9545C61.0005 20.8864 61.4304 20.8352 61.7599 20.8011C62.0933 20.7633 62.3357 20.7008 62.4872 20.6136C62.6425 20.5265 62.7202 20.375 62.7202 20.1591V20.1136C62.7202 19.553 62.5668 19.1174 62.2599 18.8068C61.9569 18.4962 61.4967 18.3409 60.8793 18.3409C60.2391 18.3409 59.7372 18.4811 59.3736 18.7614C59.0099 19.0417 58.7543 19.3409 58.6065 19.6591L57.3338 19.2045C57.5611 18.6742 57.8641 18.2614 58.2429 17.9659C58.6255 17.6667 59.0421 17.4583 59.4929 17.3409C59.9474 17.2197 60.3944 17.1591 60.8338 17.1591C61.1141 17.1591 61.4361 17.1932 61.7997 17.2614C62.1671 17.3258 62.5213 17.4602 62.8622 17.6648C63.2069 17.8693 63.4929 18.178 63.7202 18.5909C63.9474 19.0038 64.0611 19.5568 64.0611 20.25V26H62.7202V24.8182H62.652C62.5611 25.0076 62.4096 25.2102 62.1974 25.4261C61.9853 25.642 61.7031 25.8258 61.3509 25.9773C60.9986 26.1288 60.5687 26.2045 60.0611 26.2045ZM60.2656 25C60.7959 25 61.2429 24.8958 61.6065 24.6875C61.974 24.4792 62.2505 24.2102 62.4361 23.8807C62.6255 23.5511 62.7202 23.2045 62.7202 22.8409V21.6136C62.6634 21.6818 62.5384 21.7443 62.3452 21.8011C62.1558 21.8542 61.9361 21.9015 61.6861 21.9432C61.4399 21.9811 61.1993 22.0152 60.9645 22.0455C60.7334 22.072 60.5459 22.0947 60.402 22.1136C60.0535 22.1591 59.7277 22.233 59.4247 22.3352C59.1255 22.4337 58.883 22.5833 58.6974 22.7841C58.5156 22.9811 58.4247 23.25 58.4247 23.5909C58.4247 24.0568 58.5971 24.4091 58.9418 24.6477C59.2902 24.8826 59.7315 25 60.2656 25ZM70.0312 29.4545C69.3835 29.4545 68.8267 29.3712 68.3608 29.2045C67.8949 29.0417 67.5066 28.8258 67.196 28.5568C66.8892 28.2917 66.6449 28.0076 66.4631 27.7045L67.5312 26.9545C67.6525 27.1136 67.8059 27.2955 67.9915 27.5C68.1771 27.7083 68.4309 27.8883 68.7528 28.0398C69.0786 28.1951 69.5047 28.2727 70.0312 28.2727C70.7358 28.2727 71.3172 28.1023 71.7756 27.7614C72.2339 27.4205 72.4631 26.8864 72.4631 26.1591V24.3864H72.3494C72.2509 24.5455 72.1108 24.7424 71.929 24.9773C71.7509 25.2083 71.4934 25.4148 71.1562 25.5966C70.8229 25.7746 70.3722 25.8636 69.804 25.8636C69.0994 25.8636 68.4669 25.697 67.9062 25.3636C67.3494 25.0303 66.9081 24.5455 66.5824 23.9091C66.2604 23.2727 66.0994 22.5 66.0994 21.5909C66.0994 20.697 66.2566 19.9186 66.571 19.2557C66.8854 18.589 67.3229 18.0739 67.8835 17.7102C68.4441 17.3428 69.0919 17.1591 69.8267 17.1591C70.3949 17.1591 70.8456 17.2538 71.179 17.4432C71.5161 17.6288 71.7737 17.8409 71.9517 18.0795C72.1335 18.3144 72.2737 18.5076 72.3722 18.6591H72.5085V17.2727H73.804V26.25C73.804 27 73.6335 27.6098 73.2926 28.0795C72.9555 28.553 72.5009 28.8996 71.929 29.1193C71.3608 29.3428 70.7282 29.4545 70.0312 29.4545ZM69.9858 24.6591C70.5237 24.6591 70.9782 24.536 71.3494 24.2898C71.7206 24.0436 72.0028 23.6894 72.196 23.2273C72.3892 22.7652 72.4858 22.2121 72.4858 21.5682C72.4858 20.9394 72.3911 20.3845 72.2017 19.9034C72.0123 19.4223 71.732 19.0455 71.3608 18.7727C70.9896 18.5 70.5313 18.3636 69.9858 18.3636C69.4176 18.3636 68.9441 18.5076 68.5653 18.7955C68.1903 19.0833 67.9081 19.4697 67.7188 19.9545C67.5331 20.4394 67.4403 20.9773 67.4403 21.5682C67.4403 22.1742 67.535 22.7102 67.7244 23.1761C67.9176 23.6383 68.2017 24.0019 68.5767 24.267C68.9555 24.5284 69.4252 24.6591 69.9858 24.6591ZM79.9176 26.1818C79.0767 26.1818 78.3513 25.9962 77.7415 25.625C77.1354 25.25 76.6676 24.7273 76.3381 24.0568C76.0123 23.3826 75.8494 22.5985 75.8494 21.7045C75.8494 20.8106 76.0123 20.0227 76.3381 19.3409C76.6676 18.6553 77.1259 18.1212 77.7131 17.7386C78.304 17.3523 78.9934 17.1591 79.7812 17.1591C80.2358 17.1591 80.6847 17.2348 81.1278 17.3864C81.571 17.5379 81.9744 17.7841 82.3381 18.125C82.7017 18.4621 82.9915 18.9091 83.2074 19.4659C83.4233 20.0227 83.5312 20.7083 83.5312 21.5227V22.0909H76.804V20.9318H82.1676C82.1676 20.4394 82.0691 20 81.8722 19.6136C81.679 19.2273 81.4025 18.9223 81.0426 18.6989C80.6866 18.4754 80.2661 18.3636 79.7812 18.3636C79.2472 18.3636 78.785 18.4962 78.3949 18.7614C78.0085 19.0227 77.7112 19.3636 77.5028 19.7841C77.2945 20.2045 77.1903 20.6553 77.1903 21.1364V21.9091C77.1903 22.5682 77.304 23.1269 77.5312 23.5852C77.7623 24.0398 78.0824 24.3864 78.4915 24.625C78.9006 24.8598 79.3759 24.9773 79.9176 24.9773C80.2699 24.9773 80.5881 24.928 80.8722 24.8295C81.16 24.7273 81.4081 24.5758 81.6165 24.375C81.8248 24.1705 81.9858 23.9167 82.0994 23.6136L83.3949 23.9773C83.2585 24.4167 83.0294 24.803 82.7074 25.1364C82.3854 25.4659 81.9877 25.7235 81.5142 25.9091C81.0407 26.0909 80.5085 26.1818 79.9176 26.1818ZM86.5483 26.0909C86.268 26.0909 86.0275 25.9905 85.8267 25.7898C85.6259 25.589 85.5256 25.3485 85.5256 25.0682C85.5256 24.7879 85.6259 24.5473 85.8267 24.3466C86.0275 24.1458 86.268 24.0455 86.5483 24.0455C86.8286 24.0455 87.0691 24.1458 87.2699 24.3466C87.4706 24.5473 87.571 24.7879 87.571 25.0682C87.571 25.2538 87.5237 25.4242 87.429 25.5795C87.3381 25.7348 87.215 25.8598 87.0597 25.9545C86.9081 26.0455 86.7377 26.0909 86.5483 26.0909ZM90.9545 26.0909C90.6742 26.0909 90.4337 25.9905 90.233 25.7898C90.0322 25.589 89.9318 25.3485 89.9318 25.0682C89.9318 24.7879 90.0322 24.5473 90.233 24.3466C90.4337 24.1458 90.6742 24.0455 90.9545 24.0455C91.2348 24.0455 91.4754 24.1458 91.6761 24.3466C91.8769 24.5473 91.9773 24.7879 91.9773 25.0682C91.9773 25.2538 91.9299 25.4242 91.8352 25.5795C91.7443 25.7348 91.6212 25.8598 91.4659 25.9545C91.3144 26.0455 91.1439 26.0909 90.9545 26.0909ZM95.3608 26.0909C95.0805 26.0909 94.84 25.9905 94.6392 25.7898C94.4384 25.589 94.3381 25.3485 94.3381 25.0682C94.3381 24.7879 94.4384 24.5473 94.6392 24.3466C94.84 24.1458 95.0805 24.0455 95.3608 24.0455C95.6411 24.0455 95.8816 24.1458 96.0824 24.3466C96.2831 24.5473 96.3835 24.7879 96.3835 25.0682C96.3835 25.2538 96.3362 25.4242 96.2415 25.5795C96.1506 25.7348 96.0275 25.8598 95.8722 25.9545C95.7206 26.0455 95.5502 26.0909 95.3608 26.0909Z" fill="#010C3B"/>
</svg>
