<svg width="456" height="216" viewBox="0 0 456 216" fill="none" xmlns="http://www.w3.org/2000/svg">
<g filter="url(#filter0_d)">
<rect x="48" y="80" width="360" height="56" rx="8" fill="white"/>
<rect x="224" y="88" width="168" height="40" rx="20" fill="#EBECEF"/>
<path opacity="0.4" d="M241.409 102.364H243.091L247.045 112.023H247.182L251.136 102.364H252.818V114H251.5V105.159H251.386L247.75 114H246.477L242.841 105.159H242.727V114H241.409V102.364ZM259.121 114.182C258.28 114.182 257.554 113.996 256.945 113.625C256.339 113.25 255.871 112.727 255.541 112.057C255.215 111.383 255.053 110.598 255.053 109.705C255.053 108.811 255.215 108.023 255.541 107.341C255.871 106.655 256.329 106.121 256.916 105.739C257.507 105.352 258.196 105.159 258.984 105.159C259.439 105.159 259.888 105.235 260.331 105.386C260.774 105.538 261.178 105.784 261.541 106.125C261.905 106.462 262.195 106.909 262.411 107.466C262.626 108.023 262.734 108.708 262.734 109.523V110.091H256.007V108.932H261.371C261.371 108.439 261.272 108 261.075 107.614C260.882 107.227 260.606 106.922 260.246 106.699C259.89 106.475 259.469 106.364 258.984 106.364C258.45 106.364 257.988 106.496 257.598 106.761C257.212 107.023 256.914 107.364 256.706 107.784C256.498 108.205 256.393 108.655 256.393 109.136V109.909C256.393 110.568 256.507 111.127 256.734 111.585C256.965 112.04 257.286 112.386 257.695 112.625C258.104 112.86 258.579 112.977 259.121 112.977C259.473 112.977 259.791 112.928 260.075 112.83C260.363 112.727 260.611 112.576 260.82 112.375C261.028 112.17 261.189 111.917 261.303 111.614L262.598 111.977C262.462 112.417 262.232 112.803 261.911 113.136C261.589 113.466 261.191 113.723 260.717 113.909C260.244 114.091 259.712 114.182 259.121 114.182ZM270.956 107.227L269.751 107.568C269.676 107.367 269.564 107.172 269.416 106.983C269.272 106.79 269.075 106.631 268.825 106.506C268.575 106.381 268.255 106.318 267.865 106.318C267.331 106.318 266.886 106.441 266.53 106.688C266.178 106.93 266.001 107.239 266.001 107.614C266.001 107.947 266.123 108.21 266.365 108.403C266.607 108.597 266.986 108.758 267.501 108.886L268.797 109.205C269.577 109.394 270.159 109.684 270.541 110.074C270.924 110.46 271.115 110.958 271.115 111.568C271.115 112.068 270.971 112.515 270.683 112.909C270.399 113.303 270.001 113.614 269.49 113.841C268.979 114.068 268.384 114.182 267.706 114.182C266.816 114.182 266.079 113.989 265.496 113.602C264.912 113.216 264.543 112.652 264.388 111.909L265.661 111.591C265.782 112.061 266.011 112.413 266.348 112.648C266.689 112.883 267.134 113 267.683 113C268.308 113 268.804 112.867 269.172 112.602C269.543 112.333 269.729 112.011 269.729 111.636C269.729 111.333 269.623 111.08 269.411 110.875C269.198 110.667 268.873 110.511 268.433 110.409L266.979 110.068C266.179 109.879 265.592 109.585 265.217 109.188C264.846 108.786 264.661 108.284 264.661 107.682C264.661 107.189 264.799 106.754 265.075 106.375C265.356 105.996 265.736 105.699 266.217 105.483C266.702 105.267 267.251 105.159 267.865 105.159C268.729 105.159 269.407 105.348 269.899 105.727C270.395 106.106 270.748 106.606 270.956 107.227ZM279.315 107.227L278.111 107.568C278.035 107.367 277.923 107.172 277.776 106.983C277.632 106.79 277.435 106.631 277.185 106.506C276.935 106.381 276.615 106.318 276.224 106.318C275.69 106.318 275.245 106.441 274.889 106.688C274.537 106.93 274.361 107.239 274.361 107.614C274.361 107.947 274.482 108.21 274.724 108.403C274.967 108.597 275.346 108.758 275.861 108.886L277.156 109.205C277.937 109.394 278.518 109.684 278.901 110.074C279.283 110.46 279.474 110.958 279.474 111.568C279.474 112.068 279.33 112.515 279.043 112.909C278.759 113.303 278.361 113.614 277.849 113.841C277.338 114.068 276.743 114.182 276.065 114.182C275.175 114.182 274.438 113.989 273.855 113.602C273.272 113.216 272.902 112.652 272.747 111.909L274.02 111.591C274.141 112.061 274.37 112.413 274.707 112.648C275.048 112.883 275.493 113 276.043 113C276.668 113 277.164 112.867 277.531 112.602C277.902 112.333 278.088 112.011 278.088 111.636C278.088 111.333 277.982 111.08 277.77 110.875C277.558 110.667 277.232 110.511 276.793 110.409L275.338 110.068C274.539 109.879 273.952 109.585 273.577 109.188C273.205 108.786 273.02 108.284 273.02 107.682C273.02 107.189 273.158 106.754 273.435 106.375C273.715 105.996 274.096 105.699 274.577 105.483C275.062 105.267 275.611 105.159 276.224 105.159C277.088 105.159 277.766 105.348 278.259 105.727C278.755 106.106 279.107 106.606 279.315 107.227ZM284.061 114.205C283.508 114.205 283.006 114.1 282.555 113.892C282.105 113.68 281.747 113.375 281.482 112.977C281.216 112.576 281.084 112.091 281.084 111.523C281.084 111.023 281.182 110.617 281.379 110.307C281.576 109.992 281.839 109.746 282.169 109.568C282.499 109.39 282.862 109.258 283.26 109.17C283.661 109.08 284.065 109.008 284.47 108.955C285 108.886 285.43 108.835 285.76 108.801C286.093 108.763 286.336 108.701 286.487 108.614C286.643 108.527 286.72 108.375 286.72 108.159V108.114C286.72 107.553 286.567 107.117 286.26 106.807C285.957 106.496 285.497 106.341 284.879 106.341C284.239 106.341 283.737 106.481 283.374 106.761C283.01 107.042 282.754 107.341 282.607 107.659L281.334 107.205C281.561 106.674 281.864 106.261 282.243 105.966C282.625 105.667 283.042 105.458 283.493 105.341C283.947 105.22 284.394 105.159 284.834 105.159C285.114 105.159 285.436 105.193 285.8 105.261C286.167 105.326 286.521 105.46 286.862 105.665C287.207 105.869 287.493 106.178 287.72 106.591C287.947 107.004 288.061 107.557 288.061 108.25V114H286.72V112.818H286.652C286.561 113.008 286.41 113.21 286.197 113.426C285.985 113.642 285.703 113.826 285.351 113.977C284.999 114.129 284.569 114.205 284.061 114.205ZM284.266 113C284.796 113 285.243 112.896 285.607 112.688C285.974 112.479 286.25 112.21 286.436 111.881C286.625 111.551 286.72 111.205 286.72 110.841V109.614C286.663 109.682 286.538 109.744 286.345 109.801C286.156 109.854 285.936 109.902 285.686 109.943C285.44 109.981 285.199 110.015 284.964 110.045C284.733 110.072 284.546 110.095 284.402 110.114C284.054 110.159 283.728 110.233 283.425 110.335C283.125 110.434 282.883 110.583 282.697 110.784C282.516 110.981 282.425 111.25 282.425 111.591C282.425 112.057 282.597 112.409 282.942 112.648C283.29 112.883 283.732 113 284.266 113ZM294.031 117.455C293.384 117.455 292.827 117.371 292.361 117.205C291.895 117.042 291.507 116.826 291.196 116.557C290.889 116.292 290.645 116.008 290.463 115.705L291.531 114.955C291.652 115.114 291.806 115.295 291.991 115.5C292.177 115.708 292.431 115.888 292.753 116.04C293.079 116.195 293.505 116.273 294.031 116.273C294.736 116.273 295.317 116.102 295.776 115.761C296.234 115.42 296.463 114.886 296.463 114.159V112.386H296.349C296.251 112.545 296.111 112.742 295.929 112.977C295.751 113.208 295.493 113.415 295.156 113.597C294.823 113.775 294.372 113.864 293.804 113.864C293.099 113.864 292.467 113.697 291.906 113.364C291.349 113.03 290.908 112.545 290.582 111.909C290.26 111.273 290.099 110.5 290.099 109.591C290.099 108.697 290.257 107.919 290.571 107.256C290.885 106.589 291.323 106.074 291.884 105.71C292.444 105.343 293.092 105.159 293.827 105.159C294.395 105.159 294.846 105.254 295.179 105.443C295.516 105.629 295.774 105.841 295.952 106.08C296.134 106.314 296.274 106.508 296.372 106.659H296.509V105.273H297.804V114.25C297.804 115 297.634 115.61 297.293 116.08C296.955 116.553 296.501 116.9 295.929 117.119C295.361 117.343 294.728 117.455 294.031 117.455ZM293.986 112.659C294.524 112.659 294.978 112.536 295.349 112.29C295.721 112.044 296.003 111.689 296.196 111.227C296.389 110.765 296.486 110.212 296.486 109.568C296.486 108.939 296.391 108.384 296.202 107.903C296.012 107.422 295.732 107.045 295.361 106.773C294.99 106.5 294.531 106.364 293.986 106.364C293.418 106.364 292.944 106.508 292.565 106.795C292.19 107.083 291.908 107.47 291.719 107.955C291.533 108.439 291.44 108.977 291.44 109.568C291.44 110.174 291.535 110.71 291.724 111.176C291.918 111.638 292.202 112.002 292.577 112.267C292.955 112.528 293.425 112.659 293.986 112.659ZM303.918 114.182C303.077 114.182 302.351 113.996 301.741 113.625C301.135 113.25 300.668 112.727 300.338 112.057C300.012 111.383 299.849 110.598 299.849 109.705C299.849 108.811 300.012 108.023 300.338 107.341C300.668 106.655 301.126 106.121 301.713 105.739C302.304 105.352 302.993 105.159 303.781 105.159C304.236 105.159 304.685 105.235 305.128 105.386C305.571 105.538 305.974 105.784 306.338 106.125C306.702 106.462 306.991 106.909 307.207 107.466C307.423 108.023 307.531 108.708 307.531 109.523V110.091H300.804V108.932H306.168C306.168 108.439 306.069 108 305.872 107.614C305.679 107.227 305.402 106.922 305.043 106.699C304.687 106.475 304.266 106.364 303.781 106.364C303.247 106.364 302.785 106.496 302.395 106.761C302.009 107.023 301.711 107.364 301.503 107.784C301.295 108.205 301.19 108.655 301.19 109.136V109.909C301.19 110.568 301.304 111.127 301.531 111.585C301.762 112.04 302.082 112.386 302.491 112.625C302.901 112.86 303.376 112.977 303.918 112.977C304.27 112.977 304.588 112.928 304.872 112.83C305.16 112.727 305.408 112.576 305.616 112.375C305.825 112.17 305.986 111.917 306.099 111.614L307.395 111.977C307.259 112.417 307.029 112.803 306.707 113.136C306.385 113.466 305.988 113.723 305.514 113.909C305.041 114.091 304.509 114.182 303.918 114.182ZM310.548 114.091C310.268 114.091 310.027 113.991 309.827 113.79C309.626 113.589 309.526 113.348 309.526 113.068C309.526 112.788 309.626 112.547 309.827 112.347C310.027 112.146 310.268 112.045 310.548 112.045C310.829 112.045 311.069 112.146 311.27 112.347C311.471 112.547 311.571 112.788 311.571 113.068C311.571 113.254 311.524 113.424 311.429 113.58C311.338 113.735 311.215 113.86 311.06 113.955C310.908 114.045 310.738 114.091 310.548 114.091ZM314.955 114.091C314.674 114.091 314.434 113.991 314.233 113.79C314.032 113.589 313.932 113.348 313.932 113.068C313.932 112.788 314.032 112.547 314.233 112.347C314.434 112.146 314.674 112.045 314.955 112.045C315.235 112.045 315.475 112.146 315.676 112.347C315.877 112.547 315.977 112.788 315.977 113.068C315.977 113.254 315.93 113.424 315.835 113.58C315.744 113.735 315.621 113.86 315.466 113.955C315.314 114.045 315.144 114.091 314.955 114.091ZM319.361 114.091C319.08 114.091 318.84 113.991 318.639 113.79C318.438 113.589 318.338 113.348 318.338 113.068C318.338 112.788 318.438 112.547 318.639 112.347C318.84 112.146 319.08 112.045 319.361 112.045C319.641 112.045 319.882 112.146 320.082 112.347C320.283 112.547 320.384 112.788 320.384 113.068C320.384 113.254 320.336 113.424 320.241 113.58C320.151 113.735 320.027 113.86 319.872 113.955C319.721 114.045 319.55 114.091 319.361 114.091Z" fill="#010C3B"/>
<path d="M72 106C73.1046 106 74 105.105 74 104C74 102.895 73.1046 102 72 102C70.8954 102 70 102.895 70 104C70 105.105 70.8954 106 72 106Z" fill="#010C3B"/>
<path fill-rule="evenodd" clip-rule="evenodd" d="M86 114V111.072C86.0034 111.024 86.0034 110.977 86 110.929V102C86 99.7909 84.2091 98 82 98H70C67.7909 98 66 99.7909 66 102V114C66 116.209 67.7909 118 70 118H82C84.2091 118 86 116.209 86 114ZM82 100H70C68.8954 100 68 100.895 68 102V111.588L70.2954 109.293C70.6859 108.902 71.3191 108.902 71.7096 109.293L74.0025 111.586L79.2954 106.293C79.6649 105.923 80.2566 105.901 80.6533 106.241L84 108.918V102C84 100.895 83.1046 100 82 100ZM70 116C69.0256 116 68.2139 115.303 68.0362 114.381L71.0025 111.414L73.2954 113.707C73.6859 114.098 74.3191 114.098 74.7096 113.707L80.0548 108.362L84 111.481V114C84 115.105 83.1046 116 82 116H70Z" fill="#010C3B"/>
<path fill-rule="evenodd" clip-rule="evenodd" d="M114.657 99.2929C115.64 98.3097 116.974 97.7573 118.364 97.7573C119.754 97.7573 121.088 98.3097 122.071 99.2929C123.054 100.276 123.607 101.61 123.607 103C123.607 104.39 123.054 105.724 122.071 106.707L115.571 113.207C114.986 113.792 114.192 114.121 113.364 114.121C112.536 114.121 111.742 113.792 111.157 113.207C110.571 112.622 110.243 111.828 110.243 111C110.243 110.172 110.571 109.378 111.157 108.793L117.657 102.293C118.047 101.902 118.681 101.902 119.071 102.293C119.462 102.683 119.462 103.317 119.071 103.707L112.571 110.207C112.361 110.417 112.243 110.703 112.243 111C112.243 111.297 112.361 111.583 112.571 111.793C112.781 112.003 113.067 112.121 113.364 112.121C113.661 112.121 113.947 112.003 114.157 111.793L120.657 105.293C121.265 104.685 121.607 103.86 121.607 103C121.607 102.14 121.265 101.315 120.657 100.707C120.049 100.099 119.224 99.7573 118.364 99.7573C117.504 99.7573 116.679 100.099 116.071 100.707L109.571 107.207C108.565 108.213 108 109.577 108 111C108 112.423 108.565 113.787 109.571 114.793C110.577 115.799 111.941 116.364 113.364 116.364C114.787 116.364 116.151 115.799 117.157 114.793L123.657 108.293C124.047 107.902 124.681 107.902 125.071 108.293C125.462 108.683 125.462 109.317 125.071 109.707L118.571 116.207C117.19 117.588 115.317 118.364 113.364 118.364C111.411 118.364 109.538 117.588 108.157 116.207C106.776 114.826 106 112.953 106 111C106 109.047 106.776 107.174 108.157 105.793L114.657 99.2929Z" fill="#010C3B"/>
<path fill-rule="evenodd" clip-rule="evenodd" d="M188.005 102.696C188.005 100.107 190.142 98 192.767 98C193.322 98 193.77 98.4419 193.77 98.9886C193.77 99.5352 193.322 99.9772 192.767 99.9772C191.247 99.9772 190.01 101.196 190.01 102.696V105.969C190.01 106.754 189.699 107.469 189.191 108C189.698 108.531 190.01 109.246 190.01 110.031V113.304C190.01 114.804 191.247 116.023 192.767 116.023C193.322 116.023 193.77 116.465 193.77 117.011C193.77 117.558 193.322 118 192.767 118C190.142 118 188.005 115.893 188.005 113.304V110.031C188.005 109.485 187.557 109.042 187.003 109.042C186.448 109.042 186 108.6 186 108.054C186 108.036 186.001 108.018 186.002 108C186.001 107.982 186 107.964 186 107.946C186 107.399 186.448 106.957 187.003 106.957C187.557 106.957 188.005 106.515 188.005 105.969V102.696ZM198.23 98.9886C198.23 98.4419 198.678 98 199.232 98C201.858 98 203.995 100.107 203.995 102.696V105.969C203.995 106.515 204.445 106.957 204.998 106.957C205.552 106.957 206 107.399 206 107.946C206 107.964 205.999 107.982 205.998 108C205.999 108.018 206 108.036 206 108.054C206 108.6 205.552 109.042 204.998 109.042C204.445 109.042 203.995 109.485 203.995 110.031V113.304C203.995 115.893 201.859 118 199.232 118C198.678 118 198.23 117.558 198.23 117.011C198.23 116.465 198.678 116.023 199.232 116.023C200.754 116.023 201.99 114.804 201.99 113.304V110.031C201.99 109.246 202.302 108.531 202.809 108C202.302 107.469 201.99 106.754 201.99 105.969V102.696C201.99 101.196 200.754 99.9772 199.232 99.9772C198.678 99.9772 198.23 99.5352 198.23 98.9886Z" fill="#010C3B"/>
<path fill-rule="evenodd" clip-rule="evenodd" d="M164 107V107.765C164 111.964 160.946 115.43 157 115.936V118C157 118.552 156.552 119 156 119C155.448 119 155 118.552 155 118V115.936C151.054 115.43 148 111.964 148 107.765V107C148 106.448 148.448 106 149 106C149.552 106 150 106.448 150 107V107.846C150 111.245 152.686 114 156 114C159.314 114 162 111.245 162 107.846V107C162 106.448 162.448 106 163 106C163.552 106 164 106.448 164 107ZM152 102C152 99.7909 153.791 98 156 98C158.209 98 160 99.7909 160 102V108C160 110.209 158.209 112 156 112C153.791 112 152 110.209 152 108V102ZM154 102C154 100.895 154.895 100 156 100C157.105 100 158 100.895 158 102V108C158 109.105 157.105 110 156 110C154.895 110 154 109.105 154 108V102Z" fill="#010C3B"/>
</g>
<defs>
<filter id="filter0_d" x="-32" y="0" width="520" height="216" filterUnits="userSpaceOnUse" color-interpolation-filters="sRGB">
<feFlood flood-opacity="0" result="BackgroundImageFix"/>
<feColorMatrix in="SourceAlpha" type="matrix" values="0 0 0 0 0 0 0 0 0 0 0 0 0 0 0 0 0 0 127 0"/>
<feOffset/>
<feGaussianBlur stdDeviation="40"/>
<feColorMatrix type="matrix" values="0 0 0 0 0.00392157 0 0 0 0 0.0470588 0 0 0 0 0.231373 0 0 0 0.16 0"/>
<feBlend mode="normal" in2="BackgroundImageFix" result="effect1_dropShadow"/>
<feBlend mode="normal" in="SourceGraphic" in2="effect1_dropShadow" result="shape"/>
</filter>
</defs>
</svg>
