<svg width="152" height="24" viewBox="0 0 152 24" fill="none" xmlns="http://www.w3.org/2000/svg">
<path d="M148.312 5.51445H152V10.474H148.312V16.474C148.312 17.1676 148.45 17.5838 148.726 17.7919C149.001 18 149.553 18.0694 150.346 18.0694H151.655V23.4104C150.483 23.5491 149.484 23.5838 148.622 23.5838C145.934 23.5838 144.038 23.1676 142.866 22.2659C141.694 21.3988 141.143 19.9422 141.143 17.9306V10.474H138.558V5.51445H141.143V0H148.312V5.51445Z" fill="#999EB1"/>
<path d="M104.617 8.04624C105.72 6.10405 107.547 5.09827 110.097 5.09827C114.13 5.09827 116.163 7.52601 116.163 12.3121V23.4104H108.994V13.4913C108.994 11.9306 108.305 11.1329 106.961 11.1329C106.271 11.1329 105.685 11.341 105.272 11.7572C104.824 12.1734 104.617 12.763 104.617 13.526V23.4104H97.4479V0.00194227H104.617V8.04624Z" fill="#999EB1"/>
<path fill-rule="evenodd" clip-rule="evenodd" d="M57.8136 7.52601C59.6059 9.19075 60.502 11.4104 60.502 14.2543C60.502 14.948 60.4331 15.6069 60.3641 16.2659H47.4047C47.4736 18.104 48.611 19.0058 50.8169 19.0058C52.0232 19.0058 52.8849 18.6936 53.3674 18.0347H60.0539C59.5025 19.9075 58.434 21.3295 56.7796 22.3353C55.1252 23.341 53.0917 23.8266 50.679 23.8266C47.577 23.8266 45.1299 23.0289 43.3376 21.3642C41.5453 19.6994 40.6837 17.4451 40.6837 14.5318C40.6837 11.6879 41.5798 9.39884 43.3721 7.66474C45.1643 5.96532 47.6115 5.09827 50.6445 5.09827C53.6087 5.09827 55.9869 5.93064 57.8136 7.52601ZM53.6087 12.5202C53.4363 10.7861 52.4023 9.88439 50.5411 9.88439C48.7833 9.88439 47.7838 10.7861 47.5081 12.5202H53.6087Z" fill="#999EB1"/>
<path d="M69.3729 9.05202C69.9933 6.52023 71.5787 5.23699 74.1637 5.23699C74.6463 5.23699 75.0599 5.27168 75.439 5.34104V11.8266H73.7846C70.9239 11.8266 69.5107 13.422 69.5107 16.5434V23.4104H62.3417V5.51445H69.3729V9.05202Z" fill="#999EB1"/>
<path d="M86.0512 23.8266C88.843 23.8266 91.1178 23.1329 92.8412 21.6763C94.5645 20.2197 95.564 18.3121 95.8053 15.8844H88.7396C88.4294 17.4798 87.5333 18.2775 86.0168 18.2775C85.0517 18.2775 84.3624 18 83.9488 17.4104C83.5352 16.8555 83.3628 15.8497 83.3628 14.4624C83.3628 13.1445 83.5696 12.1734 83.9832 11.5491C84.3969 10.9595 85.0862 10.6474 86.0512 10.6474C87.4988 10.6474 88.3605 11.341 88.6707 12.7283H95.8053C95.5985 10.474 94.7024 8.63584 93.048 7.21387C91.3591 5.82659 89.0843 5.09827 86.1891 5.09827C83.0526 5.09827 80.6055 5.96532 78.8822 7.63006C77.0899 9.32948 76.1938 11.6185 76.1938 14.4624C76.1938 17.3064 77.0554 19.5607 78.8477 21.2601C80.6055 22.9942 83.0182 23.8266 86.0512 23.8266Z" fill="#999EB1"/>
<path fill-rule="evenodd" clip-rule="evenodd" d="M137.92 23.4104C137.472 22.5434 137.265 21.6069 137.265 20.5665V10.8208C137.265 7.00578 134.232 5.09827 128.2 5.09827C124.995 5.09827 122.651 5.65318 121.169 6.72832C119.652 7.80347 118.86 9.46821 118.791 11.7225H125.96C125.994 11.0636 126.167 10.6127 126.511 10.3353C126.856 10.0925 127.373 9.95376 128.097 9.95376C129.407 9.95376 130.096 10.4046 130.096 11.2717C130.096 11.6879 129.924 12 129.579 12.2081C129.234 12.4162 128.717 12.5549 127.959 12.6243L124.719 12.9364C122.375 13.1792 120.652 13.7688 119.549 14.6705C118.446 15.5723 117.929 16.8555 117.929 18.4856C117.929 20.289 118.515 21.6416 119.687 22.578C120.859 23.5491 122.444 24 124.478 24C127.235 24 129.165 23.1329 130.199 21.3295C130.199 22.0925 130.372 22.7861 130.716 23.4104H137.92ZM127.304 19.4913C125.891 19.4913 125.202 18.9711 125.202 17.896C125.202 16.9942 125.753 16.474 126.89 16.3353L128.545 16.1272C129.338 16.0578 129.855 15.815 130.096 15.3988V16.578C130.096 18.5202 129.165 19.4913 127.304 19.4913Z" fill="#999EB1"/>
<path fill-rule="evenodd" clip-rule="evenodd" d="M17.1299 7.52589C18.9222 9.19063 19.8183 11.4103 19.8183 14.2542C19.8183 14.9479 19.7494 15.6068 19.6805 16.2658H6.721C6.78994 18.1039 7.92734 19.0057 10.1332 19.0057C11.3395 19.0057 12.2012 18.6935 12.6837 18.0346H19.3703C18.8188 19.9074 17.7503 21.3294 16.0959 22.3351C14.4415 23.3409 12.408 23.8265 9.99534 23.8265C6.89334 23.8265 4.4462 23.0288 2.65393 21.364C0.861667 19.6993 0 17.445 0 14.5317C0 11.6877 0.896134 9.39872 2.6884 7.66462C4.48067 5.9652 6.9278 5.09814 9.96087 5.09814C12.925 5.09814 15.3032 5.93051 17.1299 7.52589ZM12.925 12.5201C12.7527 10.786 11.7187 9.88427 9.85747 9.88427C8.09967 9.88427 7.10014 10.786 6.8244 12.5201H12.925Z" fill="#999EB1"/>
<path d="M30.468 17.549C30.9505 15.5721 31.5709 13.2831 32.3292 10.6473L33.7768 5.51433H41.1527L34.5006 23.4103H26.1252L19.4731 5.51433H27.1247L28.6068 10.6473C29.3651 13.2831 29.9855 15.5721 30.468 17.549Z" fill="#999EB1"/>
</svg>
