<svg width="24" height="24" viewBox="0 0 24 24" fill="none" xmlns="http://www.w3.org/2000/svg">
<g opacity="0.4">
<path fill-rule="evenodd" clip-rule="evenodd" d="M8.42893 3L12 6.57107L15.5711 3H22C22 6.95824 19.7003 10.3793 16.364 12C19.7003 13.6207 22 17.0418 22 21.0001H15.5711L12 17.429L8.42893 21.0001H2C2 17.0418 4.29974 13.6207 7.63596 12C4.29974 10.3793 2 6.95824 2 3H8.42893ZM4.25204 4.99992C5.14013 8.45037 8.27233 10.9999 12 10.9999C15.7277 10.9999 18.8599 8.45037 19.748 4.99992H16.3995L12 9.39941L7.60051 4.99992H4.25204ZM19.748 19.0001C18.8599 15.5496 15.7277 13.0001 12 13.0001C8.27233 13.0001 5.14013 15.5496 4.25204 19.0001H7.60051L12 14.6006L16.3995 19.0001H19.748Z" fill="#010C3B"/>
</g>
</svg>
